<svg aria-hidden="true" style="position: absolute; width: 0; height: 0; overflow: hidden;" version="1.1" xmlns="http://www.w3.org/2000/svg" xmlns:xlink="http://www.w3.org/1999/xlink">
<defs>
<symbol id="icon-exchange" viewBox="0 0 32 32">
<path fill="#b150d2" style="fill: var(--color1, #b150d2)" d="M14.176 16.692h-12.878c-0.115 0-0.225-0.046-0.306-0.127s-0.127-0.191-0.127-0.306v-2.8c0.001-1.011 0.403-1.98 1.118-2.695s1.684-1.117 2.695-1.118h6.117c1.011 0.001 1.98 0.403 2.695 1.118s1.117 1.684 1.118 2.695v2.8c0 0.115-0.046 0.225-0.127 0.306s-0.191 0.127-0.306 0.127z"></path>
<path fill="#000" style="fill: var(--color2, #000)" d="M14.176 16.692h-12.878c-0.115 0-0.225-0.046-0.306-0.127s-0.127-0.191-0.127-0.306v-2.8c0.001-1.011 0.403-1.98 1.118-2.695s1.684-1.117 2.695-1.118h6.117c1.011 0.001 1.98 0.403 2.695 1.118s1.117 1.684 1.118 2.695v2.8c0 0.115-0.046 0.225-0.127 0.306s-0.191 0.127-0.306 0.127zM1.73 15.827h12.013v-2.368c-0.001-0.782-0.312-1.531-0.865-2.084s-1.302-0.863-2.084-0.864h-6.117c-0.782 0.001-1.531 0.312-2.083 0.864s-0.864 1.302-0.864 2.083v2.368z"></path>
<path fill="#b150d2" style="fill: var(--color1, #b150d2)" d="M7.736 8.541c-0.759 0-1.501-0.225-2.132-0.647s-1.123-1.021-1.413-1.722-0.366-1.473-0.218-2.217c0.148-0.744 0.514-1.428 1.050-1.965s1.221-0.902 1.965-1.050 1.516-0.072 2.217 0.218c0.701 0.29 1.301 0.782 1.722 1.413s0.647 1.373 0.647 2.132c-0.001 1.018-0.406 1.993-1.125 2.713s-1.695 1.124-2.713 1.125z"></path>
<path fill="#000" style="fill: var(--color2, #000)" d="M7.736 8.541c-0.759 0-1.501-0.225-2.132-0.647s-1.123-1.021-1.413-1.722-0.366-1.473-0.218-2.217c0.148-0.744 0.514-1.428 1.050-1.965s1.221-0.902 1.965-1.050 1.516-0.072 2.217 0.218c0.701 0.29 1.301 0.782 1.722 1.413s0.647 1.373 0.647 2.132c-0.001 1.018-0.406 1.993-1.125 2.713s-1.695 1.124-2.713 1.125zM7.736 1.73c-0.588 0-1.163 0.174-1.652 0.501s-0.87 0.791-1.095 1.334c-0.225 0.543-0.284 1.141-0.169 1.718s0.398 1.106 0.814 1.522c0.416 0.416 0.946 0.699 1.522 0.814s1.174 0.056 1.718-0.169c0.543-0.225 1.008-0.606 1.334-1.095s0.501-1.064 0.501-1.652c-0.001-0.788-0.314-1.544-0.872-2.101s-1.313-0.871-2.101-0.872z"></path>
<path fill="#38bab4" style="fill: var(--color3, #38bab4)" d="M30.733 31.116h-12.878c-0.115 0-0.225-0.046-0.306-0.127s-0.127-0.191-0.127-0.306v-2.8c0.001-1.011 0.403-1.98 1.118-2.695s1.684-1.117 2.695-1.118h6.117c1.011 0.001 1.98 0.403 2.695 1.118s1.117 1.684 1.118 2.695v2.8c0 0.115-0.046 0.225-0.127 0.306s-0.191 0.127-0.306 0.127z"></path>
<path fill="#000" style="fill: var(--color2, #000)" d="M30.733 31.116h-12.878c-0.115 0-0.225-0.046-0.306-0.127s-0.127-0.191-0.127-0.306v-2.8c0.001-1.011 0.403-1.98 1.118-2.695s1.684-1.117 2.695-1.118h6.117c1.011 0.001 1.98 0.403 2.695 1.118s1.117 1.684 1.118 2.695v2.8c0 0.115-0.046 0.225-0.127 0.306s-0.191 0.127-0.306 0.127zM18.287 30.251h12.013v-2.368c-0.001-0.782-0.312-1.531-0.865-2.084s-1.302-0.863-2.084-0.864h-6.117c-0.782 0.001-1.531 0.312-2.084 0.864s-0.863 1.302-0.864 2.083v2.368z"></path>
<path fill="#38bab4" style="fill: var(--color3, #38bab4)" d="M24.294 22.965c-0.759 0-1.501-0.225-2.132-0.647s-1.123-1.021-1.413-1.722c-0.291-0.701-0.366-1.473-0.218-2.217s0.514-1.428 1.050-1.965c0.537-0.537 1.221-0.902 1.965-1.050s1.516-0.072 2.217 0.218c0.701 0.29 1.301 0.782 1.722 1.414s0.647 1.373 0.647 2.132c-0.001 1.018-0.406 1.993-1.125 2.712s-1.695 1.124-2.712 1.125z"></path>
<path fill="#000" style="fill: var(--color2, #000)" d="M24.294 22.965c-0.759 0-1.501-0.225-2.132-0.647s-1.123-1.021-1.413-1.722c-0.291-0.701-0.366-1.473-0.218-2.217s0.514-1.428 1.050-1.965c0.537-0.537 1.221-0.902 1.965-1.050s1.516-0.072 2.217 0.218c0.701 0.29 1.301 0.782 1.722 1.414s0.647 1.373 0.647 2.132c-0.001 1.018-0.406 1.993-1.125 2.712s-1.695 1.124-2.712 1.125zM24.294 16.154c-0.588 0-1.163 0.174-1.652 0.501s-0.87 0.791-1.095 1.334c-0.225 0.543-0.284 1.141-0.169 1.718s0.398 1.106 0.814 1.522 0.945 0.699 1.522 0.814c0.577 0.115 1.174 0.056 1.718-0.169s1.008-0.606 1.334-1.095c0.327-0.489 0.501-1.064 0.501-1.652-0.001-0.788-0.314-1.544-0.872-2.101s-1.313-0.871-2.101-0.872z"></path>
<path fill="#000" style="fill: var(--color2, #000)" d="M11.243 16.692h-7.011c-0.115 0-0.225-0.046-0.306-0.127s-0.127-0.191-0.127-0.306v-1.937c0-0.115 0.046-0.225 0.127-0.306s0.191-0.127 0.306-0.127 0.225 0.046 0.306 0.127c0.081 0.081 0.127 0.191 0.127 0.306v1.505h6.147v-1.505c0-0.115 0.046-0.225 0.127-0.306s0.191-0.127 0.306-0.127c0.115 0 0.225 0.046 0.306 0.127s0.127 0.191 0.127 0.306v1.937c0 0.115-0.046 0.225-0.127 0.306s-0.191 0.127-0.306 0.127z"></path>
<path fill="#000" style="fill: var(--color2, #000)" d="M27.77 31.138h-7.009c-0.115 0-0.225-0.046-0.306-0.127s-0.127-0.191-0.127-0.306v-1.938c0-0.115 0.046-0.225 0.127-0.306s0.191-0.127 0.306-0.127c0.115 0 0.225 0.046 0.306 0.127s0.127 0.191 0.127 0.306v1.506h6.144v-1.506c0-0.115 0.046-0.225 0.127-0.306s0.191-0.127 0.306-0.127c0.115 0 0.225 0.046 0.306 0.127s0.127 0.191 0.127 0.306v1.938c0 0.115-0.046 0.225-0.127 0.306s-0.191 0.127-0.306 0.127z"></path>
<path fill="#000" style="fill: var(--color2, #000)" d="M25.983 11.857c-0.115 0-0.225-0.046-0.306-0.127s-0.127-0.191-0.127-0.306v-2.595c-0.001-0.974-0.389-1.909-1.078-2.598s-1.623-1.077-2.598-1.078h-3.459c-0.115 0-0.225-0.046-0.306-0.127s-0.127-0.191-0.127-0.306c0-0.115 0.046-0.225 0.127-0.306s0.191-0.127 0.306-0.127h3.459c1.204 0.001 2.358 0.48 3.209 1.331s1.33 2.005 1.331 3.209v2.595c0 0.115-0.046 0.225-0.127 0.306s-0.191 0.127-0.306 0.127z"></path>
<path fill="#000" style="fill: var(--color2, #000)" d="M20.108 6.848c-0.057 0-0.113-0.011-0.166-0.033s-0.1-0.054-0.14-0.094l-1.694-1.693c-0.081-0.081-0.127-0.191-0.127-0.306s0.046-0.225 0.127-0.306l1.697-1.692c0.039-0.046 0.086-0.083 0.14-0.109s0.112-0.041 0.172-0.043c0.060-0.002 0.119 0.008 0.175 0.029s0.106 0.055 0.148 0.097 0.075 0.093 0.097 0.148c0.022 0.056 0.032 0.115 0.029 0.175s-0.017 0.118-0.044 0.172c-0.026 0.054-0.063 0.101-0.109 0.14l-1.388 1.388 1.388 1.388c0.060 0.060 0.102 0.138 0.118 0.221s0.008 0.171-0.025 0.25c-0.033 0.079-0.088 0.147-0.159 0.194s-0.155 0.073-0.24 0.073h-0.001z"></path>
<path fill="#000" style="fill: var(--color2, #000)" d="M13.586 27.713h-3.46c-1.204-0.001-2.358-0.48-3.209-1.331s-1.33-2.005-1.331-3.209v-2.595c0-0.115 0.046-0.225 0.127-0.306s0.191-0.127 0.306-0.127c0.115 0 0.225 0.046 0.306 0.127s0.127 0.191 0.127 0.306v2.595c0.001 0.974 0.389 1.909 1.078 2.598s1.623 1.077 2.598 1.078h3.46c0.115 0 0.225 0.046 0.306 0.127s0.127 0.191 0.127 0.306c0 0.115-0.046 0.225-0.127 0.306s-0.191 0.127-0.306 0.127z"></path>
<path fill="#000" style="fill: var(--color2, #000)" d="M11.892 29.405c-0.085-0.001-0.167-0.027-0.237-0.075s-0.124-0.115-0.157-0.193c-0.032-0.078-0.041-0.164-0.025-0.247s0.056-0.16 0.116-0.22l1.384-1.39-1.384-1.388c-0.079-0.082-0.122-0.191-0.121-0.304s0.046-0.222 0.127-0.302 0.189-0.126 0.302-0.127c0.113-0.001 0.223 0.043 0.304 0.121l1.693 1.693c0.081 0.081 0.127 0.191 0.127 0.306s-0.046 0.225-0.127 0.306l-1.696 1.694c-0.040 0.040-0.088 0.072-0.141 0.093s-0.109 0.032-0.166 0.032z"></path>
</symbol>
<symbol id="icon-qr-code" viewBox="0 0 32 32">
<path fill="#000" style="fill: var(--color2, #000)" d="M18.222 17.667c0.307 0 0.556-0.249 0.556-0.556s-0.249-0.556-0.556-0.556c-0.307 0-0.556 0.249-0.556 0.556s0.249 0.556 0.556 0.556z"></path>
<path fill="#000" style="fill: var(--color2, #000)" d="M6 17.667c0.307 0 0.556-0.249 0.556-0.556s-0.249-0.556-0.556-0.556c-0.307 0-0.556 0.249-0.556 0.556s0.249 0.556 0.556 0.556z"></path>
<path fill="#000" style="fill: var(--color2, #000)" d="M2.333 8.778c0.307 0 0.556-0.249 0.556-0.556v-5.333h5.333c0.307 0 0.556-0.249 0.556-0.556s-0.249-0.556-0.556-0.556h-5.889c-0.307 0-0.556 0.249-0.556 0.556v5.889c0 0.307 0.249 0.556 0.556 0.556z"></path>
<path fill="#000" style="fill: var(--color2, #000)" d="M8.778 29.667c0-0.307-0.249-0.556-0.556-0.556h-5.333v-5.333c0-0.307-0.249-0.556-0.556-0.556s-0.556 0.249-0.556 0.556v5.889c0 0.307 0.249 0.556 0.556 0.556h5.889c0.307 0 0.556-0.249 0.556-0.556z"></path>
<path fill="#000" style="fill: var(--color2, #000)" d="M29.667 23.222c-0.307 0-0.556 0.249-0.556 0.556v5.333h-5.333c-0.307 0-0.556 0.249-0.556 0.556s0.249 0.556 0.556 0.556h5.889c0.307 0 0.556-0.249 0.556-0.556v-5.889c0-0.307-0.249-0.556-0.556-0.556z"></path>
<path fill="#000" style="fill: var(--color2, #000)" d="M29.667 1.778h-5.889c-0.307 0-0.556 0.249-0.556 0.556s0.249 0.556 0.556 0.556h5.333v5.333c0 0.307 0.249 0.556 0.556 0.556s0.556-0.249 0.556-0.556v-5.889c0-0.307-0.249-0.556-0.556-0.556z"></path>
<path fill="#000" style="fill: var(--color2, #000)" d="M5.444 26c0 0.307 0.249 0.556 0.556 0.556h5.556c0.307 0 0.556-0.249 0.556-0.556v-5.556c0-0.307-0.249-0.556-0.556-0.556h-5.556c-0.307 0-0.556 0.249-0.556 0.556v5.556zM6.556 21h4.444v4.444h-4.444v-4.444z"></path>
<path fill="#000" style="fill: var(--color2, #000)" d="M11.556 5.444h-5.556c-0.307 0-0.556 0.249-0.556 0.556v5.556c0 0.307 0.249 0.556 0.556 0.556h5.556c0.307 0 0.556-0.249 0.556-0.556v-5.556c0-0.307-0.249-0.556-0.556-0.556zM11 11h-4.444v-4.444h4.444v4.444z"></path>
<path fill="#000" style="fill: var(--color2, #000)" d="M26.556 6c0-0.307-0.249-0.556-0.556-0.556h-5.556c-0.307 0-0.556 0.249-0.556 0.556v5.556c0 0.307 0.249 0.556 0.556 0.556h5.556c0.307 0 0.556-0.249 0.556-0.556v-5.556zM25.444 11h-4.444v-4.444h4.444v4.444z"></path>
<path fill="#000" style="fill: var(--color2, #000)" d="M26.556 26v-5.556c0-0.307-0.249-0.556-0.556-0.556h-5.556c-0.307 0-0.556 0.249-0.556 0.556v5.556c0 0.307 0.249 0.556 0.556 0.556h5.556c0.307 0 0.556-0.249 0.556-0.556zM25.444 25.444h-4.444v-4.444h4.444v4.444z"></path>
<path fill="#000" style="fill: var(--color2, #000)" d="M9.333 22.111h-1.111c-0.307 0-0.556 0.249-0.556 0.556v1.111c0 0.307 0.249 0.556 0.556 0.556h1.111c0.307 0 0.556-0.249 0.556-0.556v-1.111c0-0.307-0.249-0.556-0.556-0.556z"></path>
<path fill="#000" style="fill: var(--color2, #000)" d="M8.222 9.889h1.111c0.307 0 0.556-0.249 0.556-0.556v-1.111c0-0.307-0.249-0.556-0.556-0.556h-1.111c-0.307 0-0.556 0.249-0.556 0.556v1.111c0 0.307 0.249 0.556 0.556 0.556z"></path>
<path fill="#000" style="fill: var(--color2, #000)" d="M22.667 9.889h1.111c0.307 0 0.556-0.249 0.556-0.556v-1.111c0-0.307-0.249-0.556-0.556-0.556h-1.111c-0.307 0-0.556 0.249-0.556 0.556v1.111c0 0.307 0.249 0.556 0.556 0.556z"></path>
<path fill="#000" style="fill: var(--color2, #000)" d="M22.667 24.333h1.111c0.307 0 0.556-0.249 0.556-0.556v-1.111c0-0.307-0.249-0.556-0.556-0.556h-1.111c-0.307 0-0.556 0.249-0.556 0.556v1.111c0 0.307 0.249 0.556 0.556 0.556z"></path>
<path fill="#000" style="fill: var(--color2, #000)" d="M7.667 17.111c0 0.307 0.249 0.556 0.556 0.556h7.222v2.778c0 0.307 0.249 0.556 0.556 0.556s0.556-0.249 0.556-0.556v-3.333c0-0.307-0.249-0.556-0.556-0.556h-7.778c-0.307 0-0.556 0.249-0.556 0.556z"></path>
<path fill="#000" style="fill: var(--color2, #000)" d="M11.556 15.444c0.307 0 0.556-0.249 0.556-0.556s-0.249-0.556-0.556-0.556h-5.556c-0.307 0-0.556 0.249-0.556 0.556s0.249 0.556 0.556 0.556h5.556z"></path>
<path fill="#000" style="fill: var(--color2, #000)" d="M13.778 15.444h2.222c0.307 0 0.556-0.249 0.556-0.556s-0.249-0.556-0.556-0.556h-2.222c-0.307 0-0.556 0.249-0.556 0.556s0.249 0.556 0.556 0.556z"></path>
<path fill="#000" style="fill: var(--color2, #000)" d="M13.778 5.444c-0.307 0-0.556 0.249-0.556 0.556v5.556c0 0.307 0.249 0.556 0.556 0.556h3.889v2.778c0 0.307 0.249 0.556 0.556 0.556h2.222c0.307 0 0.556-0.249 0.556-0.556s-0.249-0.556-0.556-0.556h-1.667v-2.778c0-0.307-0.249-0.556-0.556-0.556h-3.889v-5c0-0.307-0.249-0.556-0.556-0.556z"></path>
<path fill="#000" style="fill: var(--color2, #000)" d="M26 14.333h-3.333c-0.307 0-0.556 0.249-0.556 0.556s0.249 0.556 0.556 0.556h3.333c0.307 0 0.556-0.249 0.556-0.556s-0.249-0.556-0.556-0.556z"></path>
<path fill="#000" style="fill: var(--color2, #000)" d="M26 16.556h-5.556c-0.307 0-0.556 0.249-0.556 0.556s0.249 0.556 0.556 0.556h5.556c0.307 0 0.556-0.249 0.556-0.556s-0.249-0.556-0.556-0.556z"></path>
<path fill="#000" style="fill: var(--color2, #000)" d="M16 22.111h-2.222c-0.307 0-0.556 0.249-0.556 0.556v3.333c0 0.307 0.249 0.556 0.556 0.556s0.556-0.249 0.556-0.556v-2.778h1.667c0.307 0 0.556-0.249 0.556-0.556s-0.249-0.556-0.556-0.556z"></path>
<path fill="#000" style="fill: var(--color2, #000)" d="M17.667 25.444h-1.667c-0.307 0-0.556 0.249-0.556 0.556s0.249 0.556 0.556 0.556h2.222c0.307 0 0.556-0.249 0.556-0.556v-6.667c0-0.307-0.249-0.556-0.556-0.556s-0.556 0.249-0.556 0.556v6.111z"></path>
<path fill="#000" style="fill: var(--color2, #000)" d="M18.222 9.889c0.307 0 0.556-0.249 0.556-0.556v-3.333c0-0.307-0.249-0.556-0.556-0.556s-0.556 0.249-0.556 0.556v2.778h-1.667c-0.307 0-0.556 0.249-0.556 0.556s0.249 0.556 0.556 0.556h2.222z"></path>
<path fill="#3b5998" style="fill: var(--color4, #3b5998)" d="M16 8.889c3.928 0 7.111 3.184 7.111 7.111s-3.184 7.111-7.111 7.111-7.111-3.184-7.111-7.111c0-3.927 3.184-7.111 7.111-7.111z"></path>
<path fill="#fff" style="fill: var(--color5, #fff)" d="M16.866 13.784h0.916v-1.354h-1.077v0.005c-1.305 0.046-1.573 0.78-1.596 1.551h-0.003v0.676h-0.889v1.326h0.889v3.554h1.34v-3.554h1.097l0.212-1.326h-1.309v-0.408c0-0.26 0.173-0.469 0.42-0.469z"></path>
</symbol>
<symbol id="icon-qr-code-2" viewBox="0 0 32 32">
<path fill="#61b5b2" style="fill: var(--color6, #61b5b2)" d="M4.267 1.778h23.467v3.2h-23.467v-3.2z"></path>
<path fill="#796fef" style="fill: var(--color7, #796fef)" d="M7.644 10.133l-0.711 1.778v10.489l1.422 2.489h1.244l0.889-2.311 0.711-1.067 1.422 0.533-0.889 3.556 3.911-0.178 1.422-1.244v-6.044l-0.356-7.467-1.067-1.067h-6.222l-1.778 0.533z"></path>
<path fill="#000" style="fill: var(--color2, #000)" d="M15 9h-6c-0.663 0-1.299 0.263-1.768 0.732s-0.732 1.105-0.732 1.768v6.040c-0.832 0.12-1.594 0.536-2.144 1.171s-0.855 1.448-0.856 2.289v5.385c-0 0.45 0.055 0.899 0.165 1.335l0.335 1.34v1.94h1v-2c-0-0.040-0.005-0.081-0.015-0.12l-0.35-1.405c-0.090-0.356-0.135-0.723-0.135-1.090v-5.385c0.001-0.576 0.2-1.134 0.564-1.581s0.871-0.753 1.436-0.869v3.95c0 0.090 0.024 0.178 0.070 0.255l1.215 2.025c0.13 0.22 0.315 0.402 0.537 0.529s0.473 0.195 0.728 0.196c0.331 0.003 0.654-0.104 0.918-0.304s0.455-0.482 0.542-0.801l0.575-2.15c0.035-0.128 0.119-0.238 0.234-0.305s0.252-0.085 0.381-0.050c0.063 0.016 0.122 0.045 0.174 0.084s0.095 0.089 0.126 0.146c0.034 0.057 0.055 0.12 0.064 0.185s0.004 0.132-0.014 0.195l-0.93 3.485c-0.080 0.295-0.12 0.599-0.12 0.905v0.94l-1.4 1.865c-0.065 0.086-0.101 0.192-0.1 0.3v1h1v-0.835l1.4-1.865c0.065-0.086 0.101-0.192 0.1-0.3v-1.105c0.001-0.218 0.029-0.435 0.085-0.645l0.065-0.25h2.85c0.663 0 1.299-0.263 1.768-0.732s0.732-1.105 0.732-1.768v-12c0-0.663-0.263-1.299-0.732-1.768s-1.105-0.732-1.768-0.732zM16.5 23.5c-0.001 0.397-0.16 0.778-0.441 1.059s-0.662 0.439-1.059 0.441h-2.58l0.265-1h0.815v-1h-0.545l0.065-0.235c0.102-0.385 0.048-0.794-0.15-1.14-0.149-0.256-0.371-0.462-0.637-0.593s-0.565-0.179-0.859-0.14c-0.294 0.039-0.57 0.164-0.793 0.359s-0.383 0.452-0.461 0.738l-0.575 2.15c-0.025 0.094-0.077 0.178-0.15 0.242s-0.163 0.105-0.259 0.119c-0.096 0.013-0.194-0.002-0.281-0.044s-0.161-0.108-0.21-0.192l-1.145-1.905v-10.86c0.001-0.397 0.16-0.778 0.441-1.059s0.662-0.439 1.059-0.441h6c0.397 0.001 0.778 0.16 1.059 0.441s0.439 0.662 0.441 1.059v12z"></path>
<path fill="#000" style="fill: var(--color2, #000)" d="M10.5 11h3v1h-3v-1z"></path>
<path fill="#000" style="fill: var(--color2, #000)" d="M8.5 11h1v1h-1v-1z"></path>
<path fill="#000" style="fill: var(--color2, #000)" d="M10 13.5h-1c-0.276 0-0.5 0.224-0.5 0.5v1c0 0.276 0.224 0.5 0.5 0.5h1c0.276 0 0.5-0.224 0.5-0.5v-1c0-0.276-0.224-0.5-0.5-0.5z"></path>
<path fill="#000" style="fill: var(--color2, #000)" d="M15 13.5h-1c-0.276 0-0.5 0.224-0.5 0.5v1c0 0.276 0.224 0.5 0.5 0.5h1c0.276 0 0.5-0.224 0.5-0.5v-1c0-0.276-0.224-0.5-0.5-0.5z"></path>
<path fill="#000" style="fill: var(--color2, #000)" d="M10 18.5h-1c-0.276 0-0.5 0.224-0.5 0.5v1c0 0.276 0.224 0.5 0.5 0.5h1c0.276 0 0.5-0.224 0.5-0.5v-1c0-0.276-0.224-0.5-0.5-0.5z"></path>
<path fill="#000" style="fill: var(--color2, #000)" d="M14.5 19.5h-1v1h1.5c0.133 0 0.26-0.053 0.354-0.146s0.146-0.221 0.146-0.354v-1.5h-1v1z"></path>
<path fill="#000" style="fill: var(--color2, #000)" d="M11.5 13.5h1v2h-1v-2z"></path>
<path fill="#000" style="fill: var(--color2, #000)" d="M13.5 16.5h2v1h-2v-1z"></path>
<path fill="#000" style="fill: var(--color2, #000)" d="M10.5 16.5h2v1h-2v-1z"></path>
<path fill="#000" style="fill: var(--color2, #000)" d="M11.5 18.5h1v2h-1v-2z"></path>
<path fill="#000" style="fill: var(--color2, #000)" d="M8.5 16.5h1v1h-1v-1z"></path>
<path fill="#000" style="fill: var(--color2, #000)" d="M27 1h-22c-0.397 0.001-0.778 0.16-1.059 0.441s-0.439 0.662-0.441 1.059v15h1v-11.5h23v18.5c0 0.133-0.053 0.26-0.146 0.354s-0.221 0.146-0.354 0.146h-9v1h9c0.397-0.001 0.778-0.16 1.059-0.441s0.439-0.662 0.441-1.059v-22c-0.001-0.397-0.16-0.778-0.441-1.059s-0.662-0.439-1.059-0.441zM27.5 5h-23v-2.5c0-0.133 0.053-0.26 0.146-0.354s0.221-0.146 0.354-0.146h22c0.133 0 0.26 0.053 0.354 0.146s0.146 0.221 0.146 0.354v2.5z"></path>
<path fill="#000" style="fill: var(--color2, #000)" d="M5.5 3h1v1h-1v-1z"></path>
<path fill="#000" style="fill: var(--color2, #000)" d="M7.5 3h1v1h-1v-1z"></path>
<path fill="#000" style="fill: var(--color2, #000)" d="M9.5 3h1v1h-1v-1z"></path>
<path fill="#000" style="fill: var(--color2, #000)" d="M20 8.5h-1c-0.276 0-0.5 0.224-0.5 0.5v1c0 0.276 0.224 0.5 0.5 0.5h1c0.276 0 0.5-0.224 0.5-0.5v-1c0-0.276-0.224-0.5-0.5-0.5z"></path>
<path fill="#000" style="fill: var(--color2, #000)" d="M25 8.5h-1c-0.276 0-0.5 0.224-0.5 0.5v1c0 0.276 0.224 0.5 0.5 0.5h1c0.276 0 0.5-0.224 0.5-0.5v-1c0-0.276-0.224-0.5-0.5-0.5z"></path>
<path fill="#000" style="fill: var(--color2, #000)" d="M20 13.5h-1c-0.276 0-0.5 0.224-0.5 0.5v1c0 0.276 0.224 0.5 0.5 0.5h1c0.276 0 0.5-0.224 0.5-0.5v-1c0-0.276-0.224-0.5-0.5-0.5z"></path>
<path fill="#000" style="fill: var(--color2, #000)" d="M23.5 15.5h1.5c0.133 0 0.26-0.053 0.354-0.146s0.146-0.221 0.146-0.354v-1.5h-1v1h-1v1z"></path>
<path fill="#000" style="fill: var(--color2, #000)" d="M21.5 8.5h1v2h-1v-2z"></path>
<path fill="#000" style="fill: var(--color2, #000)" d="M23.5 11.5h2v1h-2v-1z"></path>
<path fill="#000" style="fill: var(--color2, #000)" d="M20.5 11.5h2v1h-2v-1z"></path>
<path fill="#000" style="fill: var(--color2, #000)" d="M21.5 13.5h1v2h-1v-2z"></path>
<path fill="#000" style="fill: var(--color2, #000)" d="M18.5 11.5h1v1h-1v-1z"></path>
<path fill="#000" style="fill: var(--color2, #000)" d="M20.5 19h5v1h-5v-1z"></path>
<path fill="#000" style="fill: var(--color2, #000)" d="M20.5 21h5v1h-5v-1z"></path>
</symbol>
<symbol id="icon-qr-code-3" viewBox="0 0 32 32">
<path fill="#d63864" style="fill: var(--color8, #d63864)" d="M9.067 20.039v-15.239c0 0-1.778-0.533-3.556-0.356s-3.556 1.778-3.556 1.778v13.817h7.111z"></path>
<path fill="#796fef" style="fill: var(--color7, #796fef)" d="M24.178 6.756h-14.4l-0.178 19.733h14.4l-1.422-2.311 0.533-3.022 1.244-1.6-3.2-3.2 0.178-1.422 1.422-0.889 1.422 0.533v-7.822z"></path>
<path fill="#fff" style="fill: var(--color5, #fff)" d="M12.444 9.6h3.2v2.844h-3.2v-2.844z"></path>
<path fill="#fff" style="fill: var(--color5, #fff)" d="M18.844 9.6h2.844v2.844h-2.844v-2.844z"></path>
<path fill="#fff" style="fill: var(--color5, #fff)" d="M12.8 15.644h2.844v2.844h-2.844v-2.844z"></path>
<path fill="#fff" style="fill: var(--color5, #fff)" d="M11.733 20.622h10.667v3.911h-10.667v-3.911z"></path>
<path fill="#fff" style="fill: var(--color5, #fff)" d="M19.556 16.711h1.778v1.422h-1.778v-1.422z"></path>
<path fill="#fff" style="fill: var(--color5, #fff)" d="M3.556 9.956h1.778v1.067h-1.778v-1.067z"></path>
<path fill="#fff" style="fill: var(--color5, #fff)" d="M7.467 9.6h1.778v1.422h-1.778v-1.422z"></path>
<path fill="#fff" style="fill: var(--color5, #fff)" d="M3.911 13.511h1.778v1.778h-1.778v-1.778z"></path>
<path fill="#000" style="fill: var(--color2, #000)" d="M5.5 9h-2c-0.133 0-0.26 0.053-0.354 0.146s-0.146 0.221-0.146 0.354v2c0 0.133 0.053 0.26 0.146 0.354s0.221 0.146 0.354 0.146h2c0.133 0 0.26-0.053 0.354-0.146s0.146-0.221 0.146-0.354v-2c0-0.133-0.053-0.26-0.146-0.354s-0.221-0.146-0.354-0.146zM5 11h-1v-1h1v1z"></path>
<path fill="#000" style="fill: var(--color2, #000)" d="M5.5 13h-2c-0.133 0-0.26 0.053-0.354 0.146s-0.146 0.221-0.146 0.354v2c0 0.133 0.053 0.26 0.146 0.354s0.221 0.146 0.354 0.146h2c0.133 0 0.26-0.053 0.354-0.146s0.146-0.221 0.146-0.354v-2c0-0.133-0.053-0.26-0.146-0.354s-0.221-0.146-0.354-0.146zM5 15h-1v-1h1v1z"></path>
<path fill="#000" style="fill: var(--color2, #000)" d="M20.5 5c0.276 0 0.5-0.224 0.5-0.5s-0.224-0.5-0.5-0.5c-0.276 0-0.5 0.224-0.5 0.5s0.224 0.5 0.5 0.5z"></path>
<path fill="#000" style="fill: var(--color2, #000)" d="M22.5 5c0.276 0 0.5-0.224 0.5-0.5s-0.224-0.5-0.5-0.5c-0.276 0-0.5 0.224-0.5 0.5s0.224 0.5 0.5 0.5z"></path>
<path fill="#000" style="fill: var(--color2, #000)" d="M15 4h4v1h-4v-1z"></path>
<path fill="#000" style="fill: var(--color2, #000)" d="M15 28h4v1h-4v-1z"></path>
<path fill="#000" style="fill: var(--color2, #000)" d="M12.5 13h3c0.133 0 0.26-0.053 0.354-0.146s0.146-0.221 0.146-0.354v-3c0-0.133-0.053-0.26-0.146-0.354s-0.221-0.146-0.354-0.146h-3c-0.133 0-0.26 0.053-0.354 0.146s-0.146 0.221-0.146 0.354v3c0 0.133 0.053 0.26 0.146 0.354s0.221 0.146 0.354 0.146zM13 10h2v2h-2v-2z"></path>
<path fill="#000" style="fill: var(--color2, #000)" d="M18.5 13h3c0.133 0 0.26-0.053 0.354-0.146s0.146-0.221 0.146-0.354v-3c0-0.133-0.053-0.26-0.146-0.354s-0.221-0.146-0.354-0.146h-3c-0.133 0-0.26 0.053-0.354 0.146s-0.146 0.221-0.146 0.354v3c0 0.133 0.053 0.26 0.146 0.354s0.221 0.146 0.354 0.146zM19 10h2v2h-2v-2z"></path>
<path fill="#000" style="fill: var(--color2, #000)" d="M12.5 19h3c0.133 0 0.26-0.053 0.354-0.146s0.146-0.221 0.146-0.354v-3c0-0.133-0.053-0.26-0.146-0.354s-0.221-0.146-0.354-0.146h-3c-0.133 0-0.26 0.053-0.354 0.146s-0.146 0.221-0.146 0.354v3c0 0.133 0.053 0.26 0.146 0.354s0.221 0.146 0.354 0.146zM13 16h2v2h-2v-2z"></path>
<path fill="#000" style="fill: var(--color2, #000)" d="M18 15h1v-1h-1.5c-0.133 0-0.26 0.053-0.354 0.146s-0.146 0.221-0.146 0.354v2.5h1v-2z"></path>
<path fill="#000" style="fill: var(--color2, #000)" d="M17 18h1v1h-1v-1z"></path>
<path fill="#000" style="fill: var(--color2, #000)" d="M20 22h1v1h-1v-1z"></path>
<path fill="#000" style="fill: var(--color2, #000)" d="M13 22h2v1h-2v-1z"></path>
<path fill="#000" style="fill: var(--color2, #000)" d="M16 22h3v1h-3v-1z"></path>
<path fill="#000" style="fill: var(--color2, #000)" d="M30.5 27.5h-1.5v-13.086c-0-1.038-0.412-2.034-1.146-2.768s-1.73-1.146-2.768-1.146h-0.086v-7c-0-0.398-0.159-0.779-0.44-1.060s-0.662-0.439-1.060-0.44h-13c-0.398 0-0.779 0.159-1.060 0.44s-0.439 0.662-0.44 1.060v0.353c-0.645-0.225-1.318-0.361-2-0.405v-1.948c0-0.133-0.053-0.26-0.146-0.354s-0.221-0.146-0.354-0.146c-0.133 0-0.26 0.053-0.354 0.146s-0.146 0.221-0.146 0.354v1.949c-1.83 0.121-3.555 0.902-4.854 2.197-0.094 0.094-0.146 0.221-0.146 0.354v14.5c0 0.133 0.053 0.26 0.146 0.354s0.221 0.146 0.354 0.146h7.5v8.5c0 0.398 0.159 0.779 0.44 1.060s0.662 0.439 1.060 0.44h13c0.398-0 0.779-0.159 1.060-0.44s0.439-0.662 0.44-1.060v-1h5v2.5h1v-3c0-0.133-0.053-0.26-0.146-0.354s-0.221-0.146-0.354-0.146zM10.5 3h13c0.133 0 0.26 0.053 0.353 0.147s0.146 0.221 0.147 0.353v2.586c-0.161-0.057-0.33-0.086-0.5-0.086h-13c-0.17-0-0.339 0.029-0.5 0.086v-2.586c0-0.133 0.053-0.26 0.147-0.353s0.221-0.146 0.353-0.147zM9 11h-1v-1h1v1zM2 20v-13.788c1.094-1.025 2.505-1.646 4-1.76v2.048c0 0.133 0.053 0.26 0.146 0.354s0.221 0.146 0.354 0.146c0.133 0 0.26-0.053 0.354-0.146s0.146-0.221 0.146-0.354v-2.050c0.687 0.051 1.362 0.21 2 0.472v4.078h-1.5c-0.133 0-0.26 0.053-0.354 0.146s-0.146 0.221-0.146 0.354v2c0 0.133 0.053 0.26 0.146 0.354s0.221 0.146 0.354 0.146h1.5v1h-1.5c-0.133 0-0.26 0.053-0.354 0.146s-0.146 0.221-0.146 0.354v2h1v-1.5h1v6h-7zM10 7.5c0-0.133 0.053-0.26 0.147-0.353s0.221-0.146 0.353-0.147h13c0.133 0 0.26 0.053 0.353 0.147s0.146 0.221 0.147 0.353v6.323c-0.398-0.297-0.89-0.442-1.386-0.41s-0.964 0.24-1.32 0.587h-1.294v1h0.72c-0.080 0.329-0.080 0.671 0 1h-1.22c-0.133 0-0.26 0.053-0.354 0.146s-0.146 0.221-0.146 0.354v2c0 0.133 0.053 0.26 0.146 0.354s0.221 0.146 0.354 0.146h2c0.133 0 0.26-0.053 0.354-0.146s0.146-0.221 0.146-0.354v-0.793l1.793 1.793-0.318 0.318c-0.178 0.178-0.34 0.371-0.486 0.576-0.024-0.112-0.086-0.212-0.175-0.283s-0.2-0.111-0.314-0.111h-11c-0.133 0-0.26 0.053-0.354 0.146s-0.146 0.221-0.146 0.354v4c0 0.133 0.053 0.26 0.146 0.354s0.221 0.146 0.354 0.146h11c0.040-0 0.079-0.005 0.117-0.014 0.181 0.368 0.412 0.709 0.686 1.014h-12.803c-0.133-0-0.26-0.053-0.353-0.147s-0.146-0.221-0.147-0.353v-18zM21 17v1h-1v-1h1zM22 21v3h-10v-3h10zM24 29.5c-0 0.133-0.053 0.26-0.147 0.353s-0.221 0.146-0.353 0.147h-13c-0.133-0-0.26-0.053-0.353-0.147s-0.146-0.221-0.147-0.353v-2.586c0.161 0.057 0.33 0.086 0.5 0.086h13c0.17 0 0.339-0.029 0.5-0.085v2.585zM25 27.5v-1c0-0.133-0.053-0.26-0.146-0.354l-0.672-0.672c-0.656-0.656-1.025-1.547-1.025-2.475s0.369-1.819 1.025-2.475l0.672-0.672c0.046-0.046 0.083-0.102 0.108-0.162s0.038-0.126 0.038-0.191c0-0.066-0.013-0.131-0.038-0.191s-0.062-0.116-0.108-0.162l-2.875-2.875c-0.205-0.205-0.32-0.482-0.32-0.771s0.115-0.567 0.32-0.771c0.205-0.205 0.482-0.32 0.771-0.32s0.567 0.115 0.771 0.32l1.625 1.625c0.094 0.094 0.221 0.146 0.354 0.146s0.26-0.053 0.354-0.146c0.094-0.094 0.146-0.221 0.146-0.354s-0.053-0.26-0.146-0.354l-0.854-0.854v-3.293h0.086c0.383-0 0.762 0.075 1.115 0.222s0.675 0.361 0.945 0.632 0.485 0.592 0.632 0.945c0.146 0.354 0.222 0.733 0.222 1.115v13.086h-3z"></path>
</symbol>
<symbol id="icon-social-media" viewBox="0 0 32 32">
<path fill="#d63864" style="fill: var(--color8, #d63864)" d="M13.556 6.755v-0.079c0-0.856-0.334-1.662-0.94-2.268-0.55-0.55-1.282-0.853-2.060-0.853-0.75 0-1.457 0.281-2 0.794-0.543-0.513-1.25-0.795-2-0.795-0.779 0-1.511 0.303-2.061 0.854-0.606 0.606-0.939 1.411-0.939 2.268v0.079c0 0.969 0.415 1.894 1.139 2.538l3.861 3.432 3.86-3.431c0.725-0.643 1.14-1.569 1.14-2.538z"></path>
<path fill="#000" style="fill: var(--color2, #000)" d="M13.556 6.755v-0.079c0-0.856-0.334-1.662-0.94-2.268-0.55-0.55-1.282-0.853-2.060-0.853-0.75 0-1.457 0.281-2 0.794-0.543-0.513-1.25-0.795-2-0.795-0.779 0-1.511 0.303-2.061 0.854-0.606 0.606-0.939 1.411-0.939 2.268v0.079c0 0.969 0.415 1.894 1.139 2.538l3.861 3.432 3.86-3.431c0.725-0.643 1.14-1.569 1.14-2.538zM8.556 11.387l-3.196-2.841c-0.511-0.454-0.804-1.107-0.804-1.79v-0.079c0-0.59 0.229-1.143 0.646-1.561 0.362-0.362 0.843-0.561 1.354-0.561s0.992 0.199 1.354 0.561l0.646 0.646 0.646-0.646c0.723-0.723 1.984-0.723 2.707 0 0.417 0.417 0.646 0.971 0.646 1.561v0.079c0 0.684-0.293 1.336-0.804 1.79l-3.196 2.841z"></path>
<path fill="#000" style="fill: var(--color2, #000)" d="M30 4.5h-13.5v-2.5c0-0.827-0.673-1.5-1.5-1.5h-13c-0.827 0-1.5 0.673-1.5 1.5v11c0 0.827 0.673 1.5 1.5 1.5h4.266l0.833 1h-4.099c-0.827 0-1.5 0.673-1.5 1.5v10c0 0.827 0.673 1.5 1.5 1.5h5.266l2.146 2.575c0.225 0.27 0.556 0.425 0.907 0.425 0.651 0 1.181-0.53 1.181-1.181v-1.819h5.5c0.827 0 1.5-0.673 1.5-1.5v-8.5h1v1.819c0 0.651 0.53 1.181 1.181 1.181 0.352 0 0.682-0.155 0.907-0.425l2.146-2.575h5.266c0.827 0 1.5-0.673 1.5-1.5v-11c0-0.827-0.673-1.5-1.5-1.5zM2 13.5c-0.276 0-0.5-0.224-0.5-0.5v-11c0-0.276 0.224-0.5 0.5-0.5h13c0.275 0 0.5 0.224 0.5 0.5v11c0 0.276-0.225 0.5-0.5 0.5h-5.5v2.819c0 0.154-0.221 0.235-0.32 0.116l-2.446-2.934h-4.734zM13.5 15.5h-3v-1h3v1zM18.5 27c0 0.276-0.224 0.5-0.5 0.5h-6.5v2.819c0 0.154-0.221 0.235-0.32 0.116l-2.446-2.934h-5.734c-0.276 0-0.5-0.224-0.5-0.5v-10c0-0.276 0.224-0.5 0.5-0.5h4.933l0.479 0.575c0.225 0.27 0.556 0.425 0.907 0.425 0.589 0 1.075-0.435 1.162-1h3.019v0.5c0 0.827 0.673 1.5 1.5 1.5h3.5v8.5zM30.5 17c0 0.276-0.224 0.5-0.5 0.5h-5.734l-2.446 2.934c-0.099 0.118-0.32 0.038-0.32-0.116v-2.819h-6.5c-0.275 0-0.5-0.224-0.5-0.5v-2.5h0.5c0.827 0 1.5-0.673 1.5-1.5v-7.5h13.5c0.276 0 0.5 0.224 0.5 0.5v11z"></path>
<path fill="#a556cb" style="fill: var(--color9, #a556cb)" d="M12.741 22.317c-0.116-0.253-0.185-0.532-0.185-0.829 0-1.103 0.897-2 2-2s2 0.897 2 2c0 0.533-0.212 1.014-0.553 1.373 0.925 0.512 1.553 1.497 1.553 2.627v1h-14v-1c0-1.13 0.628-2.115 1.553-2.627-0.341-0.359-0.553-0.84-0.553-1.373 0-1.103 0.897-2 2-2s2 0.897 2 2c0 0.297-0.069 0.576-0.185 0.828 0.216-0.191 0.456-0.354 0.715-0.484-0.326-0.356-0.53-0.826-0.53-1.345 0-1.103 0.897-2 2-2s2 0.897 2 2c0 0.52-0.204 0.989-0.53 1.345 0.259 0.13 0.499 0.293 0.715 0.484z"></path>
<path fill="#000" style="fill: var(--color2, #000)" d="M3.611 25.589h13.511v0.907h-13.511v-0.907z"></path>
<path fill="#000" style="fill: var(--color2, #000)" d="M12.556 21.489c0 0.297 0.069 0.576 0.185 0.828-0.216-0.191-0.456-0.354-0.715-0.484 0.326-0.356 0.53-0.826 0.53-1.345 0-1.103-0.897-2-2-2s-2 0.897-2 2c0 0.52 0.204 0.989 0.53 1.345-0.259 0.13-0.499 0.293-0.715 0.484 0.116-0.253 0.185-0.532 0.185-0.828 0-1.103-0.897-2-2-2s-2 0.897-2 2c0 0.533 0.213 1.014 0.553 1.373-0.925 0.512-1.554 1.497-1.554 2.627v1h1v-1c0-1.103 0.897-2 2-2 0.315 0 0.617 0.075 0.892 0.212-0.079 0.228-0.137 0.468-0.165 0.717l-0.224 2.015 0.997-0.311 0.22-1.593c0.13-1.163 1.11-2.040 2.28-2.040s2.15 0.877 2.28 2.040l0.198 1.771 1.019 0.133-0.224-2.015c-0.027-0.25-0.086-0.488-0.165-0.717 0.275-0.138 0.577-0.212 0.892-0.212 1.103 0 2 0.897 2 2v1h1v-1c0-1.13-0.628-2.115-1.553-2.627 0.341-0.359 0.553-0.84 0.553-1.373 0-1.103-0.897-2-2-2s-2 0.897-2 2zM5.556 21.489c0-0.552 0.449-1 1-1s1 0.448 1 1c0 0.552-0.449 1-1 1s-1-0.448-1-1zM9.556 20.489c0-0.552 0.448-1 1-1s1 0.448 1 1c0 0.552-0.448 1-1 1s-1-0.448-1-1zM15.556 21.489c0 0.552-0.448 1-1 1s-1-0.448-1-1c0-0.552 0.448-1 1-1s1 0.448 1 1z"></path>
<path fill="#4267b2" style="fill: var(--color10, #4267b2)" d="M18.133 10.311h2.489v5.333h-2.489v-5.333z"></path>
<path fill="#000" style="fill: var(--color2, #000)" d="M26.422 9.4h-0.91l0.12-0.722c0.095-0.569-0.064-1.147-0.437-1.586s-0.916-0.692-1.492-0.692c-0.689 0-1.288 0.468-1.456 1.136-0.181 0.725-0.556 1.387-1.084 1.916l-0.148 0.148c-0.166-0.124-0.37-0.2-0.593-0.2h-2c-0.552 0-1 0.448-1 1v5c0 0.552 0.448 1 1 1h2c0.436 0 0.804-0.282 0.941-0.673 0.887 0.44 1.861 0.673 2.862 0.673h2.197c1.103 0 2-0.897 2-2v-3c0-1.103-0.897-2-2-2zM18.422 15.4v-5h2l0 5h-2zM27.422 14.4c0 0.552-0.448 1-1 1h-2.197c-0.992 0-1.955-0.271-2.803-0.779v-4.014l0.448-0.448c0.657-0.656 1.123-1.48 1.348-2.38 0.055-0.222 0.255-0.378 0.485-0.378 0.282 0 0.548 0.123 0.73 0.338s0.26 0.498 0.213 0.776l-0.314 1.886h2.090c0.552 0 1 0.448 1 1v3z"></path>
</symbol>
<symbol id="icon-vector" viewBox="0 0 48 32">
<path d="M5.64 2.161l18.36 18.32 18.36-18.32 5.64 5.64-24 24-24-24 5.64-5.64z"></path>
</symbol>
</defs>
</svg>
